<?xml version="1.0" encoding="UTF-8"?>
<svg version="1.1" xmlns="http://www.w3.org/2000/svg" width="276" height="135">
<path d="M0 0 C91.08 0 182.16 0 276 0 C276 44.55 276 89.1 276 135 C184.92 135 93.84 135 0 135 C0 90.45 0 45.9 0 0 Z " fill="#FDFDFC" transform="translate(0,0)"/>
<path d="M0 0 C3.38291029 2.44476798 6.52440989 5.10621797 9.6640625 7.85546875 C10.46328125 8.54253906 11.2625 9.22960938 12.0859375 9.9375 C19.60162661 16.87397247 23.96017161 25.94004806 24.86914062 36.16162109 C24.96769515 38.62598693 24.99250454 41.07671074 24.9765625 43.54296875 C24.97136597 44.84874878 24.97136597 44.84874878 24.96606445 46.1809082 C24.8491889 53.17213254 24.42713572 60.34007388 21.6640625 66.85546875 C20.1790625 67.35046875 20.1790625 67.35046875 18.6640625 67.85546875 C17.58420903 69.70723804 17.58420903 69.70723804 16.6640625 71.85546875 C12.66187794 78.2195983 7.75749434 82.53427382 1.6640625 86.85546875 C1.08011719 87.29246094 0.49617188 87.72945313 -0.10546875 88.1796875 C-3.22824301 90.43282842 -4.31751585 90.85546875 -8.3359375 90.85546875 C-8.3359375 88.87546875 -8.3359375 86.89546875 -8.3359375 84.85546875 C-8.9959375 84.85546875 -9.6559375 84.85546875 -10.3359375 84.85546875 C-10.3359375 85.51546875 -10.3359375 86.17546875 -10.3359375 86.85546875 C-14.7737936 87.96712107 -19.10550136 87.97074638 -23.6484375 87.91796875 C-24.38900391 87.91345703 -25.12957031 87.90894531 -25.89257812 87.90429688 C-27.70706649 87.8925905 -29.52151284 87.87465773 -31.3359375 87.85546875 C-31.3359375 88.51546875 -31.3359375 89.17546875 -31.3359375 89.85546875 C-24.7359375 89.85546875 -18.1359375 89.85546875 -11.3359375 89.85546875 C-11.3359375 90.51546875 -11.3359375 91.17546875 -11.3359375 91.85546875 C-15.17317922 92.75960548 -18.71096024 92.96123773 -22.6484375 92.91796875 C-23.71707031 92.90894531 -24.78570312 92.89992188 -25.88671875 92.890625 C-27.09908203 92.87322266 -27.09908203 92.87322266 -28.3359375 92.85546875 C-28.3359375 93.51546875 -28.3359375 94.17546875 -28.3359375 94.85546875 C-23.3859375 94.85546875 -18.4359375 94.85546875 -13.3359375 94.85546875 C-13.3359375 95.51546875 -13.3359375 96.17546875 -13.3359375 96.85546875 C-14.3259375 97.35046875 -14.3259375 97.35046875 -15.3359375 97.85546875 C-15.3359375 99.17546875 -15.3359375 100.49546875 -15.3359375 101.85546875 C-18.51139653 102.91395509 -20.87602546 103.02217753 -24.2109375 103.04296875 C-25.23960938 103.05714844 -26.26828125 103.07132812 -27.328125 103.0859375 C-30.43119915 102.84816948 -32.57521234 102.27260831 -35.3359375 100.85546875 C-37.46440868 97.20666101 -37.52949288 94.01690943 -37.3359375 89.85546875 C-37.9959375 89.85546875 -38.6559375 89.85546875 -39.3359375 89.85546875 C-41.28615286 83.39538038 -41.55856053 77.58363145 -41.3359375 70.85546875 C-41.90183594 70.6234375 -42.46773437 70.39140625 -43.05078125 70.15234375 C-45.91199089 68.52854614 -47.70562776 66.55429181 -49.8984375 64.10546875 C-50.66285156 63.265 -51.42726563 62.42453125 -52.21484375 61.55859375 C-56.61306534 55.95349368 -57.80429946 51.40523075 -58.0234375 44.48046875 C-58.07467773 43.37638672 -58.07467773 43.37638672 -58.12695312 42.25 C-58.20866539 40.45233022 -58.27399531 38.65392829 -58.3359375 36.85546875 C-58.81553874 48.21935359 -59.25267298 58.91807469 -51.8359375 68.35546875 C-49.48497248 70.84976796 -49.48497248 70.84976796 -47.0234375 72.48046875 C-46.4665625 72.93421875 -45.9096875 73.38796875 -45.3359375 73.85546875 C-45.3359375 75.17546875 -45.3359375 76.49546875 -45.3359375 77.85546875 C-48.8051893 77.27726012 -50.42244833 76.12866198 -52.8359375 73.60546875 C-53.43921875 72.97898437 -54.0425 72.3525 -54.6640625 71.70703125 C-56.03608557 70.18754776 -57.32419366 68.59269699 -58.5859375 66.98046875 C-60.23572251 64.59371317 -60.23572251 64.59371317 -63.3359375 63.85546875 C-59.41589651 73.00223105 -53.49887928 78.98253758 -44.90234375 83.9453125 C-43.3359375 84.85546875 -43.3359375 84.85546875 -42.3359375 85.85546875 C-42.29529918 87.5216399 -42.2932165 89.1893497 -42.3359375 90.85546875 C-44.3159375 90.52546875 -46.2959375 90.19546875 -48.3359375 89.85546875 C-48.3359375 89.19546875 -48.3359375 88.53546875 -48.3359375 87.85546875 C-49.604375 87.54609375 -49.604375 87.54609375 -50.8984375 87.23046875 C-61.37209285 83.04100661 -67.52550294 72.23420323 -72.50390625 62.59375 C-77.68037544 50.2773233 -76.67327365 37.01251173 -72.02490234 24.70874023 C-67.07987122 12.82860448 -57.26917202 2.9086551 -45.44213867 -2.33081055 C-32.13096441 -7.47351877 -12.12417756 -7.79411415 0 0 Z " fill="#FDF2E3" transform="translate(95.3359375,13.14453125)"/>
<path d="M0 0 C5.73873278 4.44968697 9.43431841 9.80982004 10.4765625 17.0546875 C10.86533617 26.73199972 8.33117592 32.81644182 2.99609375 40.65234375 C0.82783456 42.88836104 -1.22202917 44.32390521 -4.00390625 45.71484375 C-4.66390625 45.71484375 -5.32390625 45.71484375 -6.00390625 45.71484375 C-6.00390625 50.00484375 -6.00390625 54.29484375 -6.00390625 58.71484375 C-13.92390625 58.71484375 -21.84390625 58.71484375 -30.00390625 58.71484375 C-30.00390625 54.42484375 -30.00390625 50.13484375 -30.00390625 45.71484375 C-31.32390625 45.38484375 -32.64390625 45.05484375 -34.00390625 44.71484375 C-40.58981242 39.05172289 -44.31275955 32.87592286 -45.27734375 24.27734375 C-45.56605706 17.17055452 -44.68198317 10.05128125 -40.12890625 4.37890625 C-28.86046388 -7.09667661 -13.65869351 -8.75966893 0 0 Z " fill="#FAFAF9" transform="translate(88.00390625,36.28515625)"/>
<path d="M0 0 C3.38291029 2.44476798 6.52440989 5.10621797 9.6640625 7.85546875 C10.46328125 8.54253906 11.2625 9.22960938 12.0859375 9.9375 C19.60162661 16.87397247 23.96017161 25.94004806 24.86914062 36.16162109 C24.96769515 38.62598693 24.99250454 41.07671074 24.9765625 43.54296875 C24.97136597 44.84874878 24.97136597 44.84874878 24.96606445 46.1809082 C24.8491889 53.17213254 24.42713572 60.34007388 21.6640625 66.85546875 C20.1790625 67.35046875 20.1790625 67.35046875 18.6640625 67.85546875 C17.58420903 69.70723804 17.58420903 69.70723804 16.6640625 71.85546875 C12.66329826 78.21733975 7.75986467 82.54033997 1.6640625 86.85546875 C1.06851563 87.29246094 0.47296875 87.72945313 -0.140625 88.1796875 C-2.78317589 90.05313776 -4.01915165 90.85546875 -7.3359375 90.85546875 C-7.09132367 87.26779921 -6.90328255 85.40562153 -4.2734375 82.85546875 C-2.70654676 81.78864952 -1.13602808 80.72655113 0.45703125 79.69921875 C9.02236911 73.81802868 15.3485254 66.01179799 17.7265625 55.79296875 C19.20301255 46.73474814 20.68481839 34.79919484 15.2265625 26.73046875 C14.7109375 26.11171875 14.1953125 25.49296875 13.6640625 24.85546875 C13.1071875 23.24671875 13.1071875 23.24671875 12.5390625 21.60546875 C9.26269858 13.54457339 -0.37851574 7.73003695 -7.8984375 4.16796875 C-14.07767177 1.80862475 -19.66974347 1.7017373 -26.2109375 1.73046875 C-27.08363281 1.72660156 -27.95632812 1.72273437 -28.85546875 1.71875 C-33.7895817 1.72616972 -38.47207102 2.02052709 -43.3359375 2.85546875 C-43.6659375 3.84546875 -43.9959375 4.83546875 -44.3359375 5.85546875 C-45.3053125 6.20609375 -46.2746875 6.55671875 -47.2734375 6.91796875 C-55.55473061 10.12418368 -61.9108489 18.55920502 -65.50390625 26.40625 C-69.2794563 36.63350627 -70.48670221 48.60315439 -66.234375 58.921875 C-65.93789062 59.55996094 -65.64140625 60.19804688 -65.3359375 60.85546875 C-65.08070312 61.50386719 -64.82546875 62.15226562 -64.5625 62.8203125 C-60.32508581 72.63634078 -52.28426305 79.44253075 -43.3359375 84.85546875 C-42.3359375 85.85546875 -42.3359375 85.85546875 -42.2734375 88.41796875 C-42.2940625 89.22234375 -42.3146875 90.02671875 -42.3359375 90.85546875 C-44.3159375 90.52546875 -46.2959375 90.19546875 -48.3359375 89.85546875 C-48.3359375 89.19546875 -48.3359375 88.53546875 -48.3359375 87.85546875 C-49.604375 87.54609375 -49.604375 87.54609375 -50.8984375 87.23046875 C-61.37209285 83.04100661 -67.52550294 72.23420323 -72.50390625 62.59375 C-77.68037544 50.2773233 -76.67327365 37.01251173 -72.02490234 24.70874023 C-67.07987122 12.82860448 -57.26917202 2.9086551 -45.44213867 -2.33081055 C-32.13096441 -7.47351877 -12.12417756 -7.79411415 0 0 Z " fill="#F69F2E" transform="translate(95.3359375,13.14453125)"/>
<path d="M0 0 C7.27136526 4.10449434 13.04915095 8.4929665 16.5625 16.3125 C16.5625 17.6325 16.5625 18.9525 16.5625 20.3125 C17.2225 20.3125 17.8825 20.3125 18.5625 20.3125 C19.18371441 33.40977053 17.5725701 42.35637254 8.5625 52.3125 C4.97878959 55.3125 4.97878959 55.3125 2.5625 55.3125 C2.58570313 56.13234375 2.60890625 56.9521875 2.6328125 57.796875 C2.65085938 58.87453125 2.66890625 59.9521875 2.6875 61.0625 C2.71070313 62.12984375 2.73390625 63.1971875 2.7578125 64.296875 C2.56401321 67.28913596 2.34318599 68.91585345 0.5625 71.3125 C-3.45947589 72.62443278 -7.5040081 72.42304363 -11.6875 72.375 C-12.43257812 72.37048828 -13.17765625 72.36597656 -13.9453125 72.36132812 C-15.7760764 72.34959246 -17.60679873 72.3316585 -19.4375 72.3125 C-19.4375 72.9725 -19.4375 73.6325 -19.4375 74.3125 C-12.8375 74.3125 -6.2375 74.3125 0.5625 74.3125 C0.5625 74.9725 0.5625 75.6325 0.5625 76.3125 C-3.27474172 77.21663673 -6.81252274 77.41826898 -10.75 77.375 C-11.81863281 77.36597656 -12.88726562 77.35695313 -13.98828125 77.34765625 C-15.20064453 77.33025391 -15.20064453 77.33025391 -16.4375 77.3125 C-16.4375 77.9725 -16.4375 78.6325 -16.4375 79.3125 C-11.4875 79.3125 -6.5375 79.3125 -1.4375 79.3125 C-1.4375 79.9725 -1.4375 80.6325 -1.4375 81.3125 C-2.4275 81.8075 -2.4275 81.8075 -3.4375 82.3125 C-3.4375 83.6325 -3.4375 84.9525 -3.4375 86.3125 C-6.61295903 87.37098634 -8.97758796 87.47920878 -12.3125 87.5 C-13.34117188 87.51417969 -14.36984375 87.52835937 -15.4296875 87.54296875 C-18.53276165 87.30520073 -20.67677484 86.72963956 -23.4375 85.3125 C-25.56597118 81.66369226 -25.63105538 78.47394068 -25.4375 74.3125 C-26.0975 74.3125 -26.7575 74.3125 -27.4375 74.3125 C-29.38771536 67.85241163 -29.66012303 62.0406627 -29.4375 55.3125 C-30.00210938 55.07917969 -30.56671875 54.84585938 -31.1484375 54.60546875 C-34.00534814 52.99175301 -35.84782426 51.04336666 -38.0625 48.625 C-38.83851562 47.79613281 -39.61453125 46.96726563 -40.4140625 46.11328125 C-45.95402033 38.44503846 -45.429229 27.9312131 -44.078125 18.9140625 C-41.92505314 11.78564892 -35.89382203 5.49701522 -29.73046875 1.6015625 C-19.88417999 -3.38645494 -10.26923621 -5.00625265 0 0 Z M-37.08984375 14.30859375 C-41.35154683 20.64556093 -41.22318565 29.31656408 -40.078125 36.59765625 C-38.28433948 43.46979403 -33.73686969 48.71395275 -28.4375 53.3125 C-27.4475 53.3125 -26.4575 53.3125 -25.4375 53.3125 C-25.4375 57.6025 -25.4375 61.8925 -25.4375 66.3125 C-17.5175 66.3125 -9.5975 66.3125 -1.4375 66.3125 C-1.4375 62.0225 -1.4375 57.7325 -1.4375 53.3125 C0.2125 52.6525 1.8625 51.9925 3.5625 51.3125 C9.59952372 45.85043092 14.00482059 40.30163195 14.92578125 32.0625 C15.27209427 22.88025777 13.90790191 17.13967473 7.765625 10.31640625 C1.6634494 4.44611332 -4.543393 2.23018156 -12.9375 1.9375 C-23.43265545 2.30343987 -30.41257806 6.24220423 -37.08984375 14.30859375 Z " fill="#202020" transform="translate(83.4375,28.6875)"/>
<path d="M0 0 C2.52209993 1.91790456 4.65530318 4.00011214 6.77734375 6.3515625 C8.04578125 7.74375 8.04578125 7.74375 9.33984375 9.1640625 C17.31741041 18.90323694 17.91377804 30.2408657 16.77734375 42.3515625 C14.76714186 51.69654984 10.08836209 59.17976106 2.77734375 65.3515625 C-0.00390625 66.62109375 -0.00390625 66.62109375 -2.22265625 67.3515625 C-2.59765625 65.1640625 -2.59765625 65.1640625 -2.22265625 62.3515625 C-0.83046401 61.12510743 0.57407935 59.9084295 2.05078125 58.78515625 C8.01323887 53.83442786 11.02923251 47.98953696 11.77734375 40.3515625 C12.30150701 32.13587316 11.37687031 24.40632124 9.77734375 16.3515625 C9.11734375 16.3515625 8.45734375 16.3515625 7.77734375 16.3515625 C7.37515625 14.8975 7.37515625 14.8975 6.96484375 13.4140625 C6.37703125 11.898125 6.37703125 11.898125 5.77734375 10.3515625 C4.78734375 10.0215625 3.79734375 9.6915625 2.77734375 9.3515625 C2.24109375 8.7740625 1.70484375 8.1965625 1.15234375 7.6015625 C-6.72079609 0.14279844 -15.35493819 -0.98672806 -25.84375 -0.85546875 C-36.8204652 -0.18290701 -44.40003549 3.91065703 -51.66015625 12.1015625 C-54.50351176 16.19599443 -55.95104137 19.51942595 -57.22265625 24.3515625 C-57.403125 24.98964844 -57.58359375 25.62773438 -57.76953125 26.28515625 C-59.31717864 33.342962 -58.45652078 41.52586533 -56.22265625 48.3515625 C-55.56265625 48.6815625 -54.90265625 49.0115625 -54.22265625 49.3515625 C-53.22265625 51.3515625 -52.22265625 53.3515625 -51.22265625 55.3515625 C-49.29346601 58.02753606 -47.68432688 60.03095789 -44.97265625 61.9140625 C-44.39515625 62.3884375 -43.81765625 62.8628125 -43.22265625 63.3515625 C-43.22265625 64.6715625 -43.22265625 65.9915625 -43.22265625 67.3515625 C-48.35797018 66.49567685 -50.83610263 63.03809057 -54.22265625 59.3515625 C-54.98578125 58.5471875 -55.74890625 57.7428125 -56.53515625 56.9140625 C-58.80013711 53.47464712 -59.40360018 50.37858816 -60.22265625 46.3515625 C-60.88265625 46.3515625 -61.54265625 46.3515625 -62.22265625 46.3515625 C-63.95806593 37.2406617 -64.56225571 27.11801108 -61.22265625 18.3515625 C-60.56265625 18.3515625 -59.90265625 18.3515625 -59.22265625 18.3515625 C-59.11824219 17.61679687 -59.01382813 16.88203125 -58.90625 16.125 C-57.01543316 8.45368597 -50.18667625 2.91686253 -43.8046875 -1.20703125 C-31.04324983 -8.33104108 -12.22516225 -8.27921879 0 0 Z " fill="#F6A63D" transform="translate(93.22265625,23.6484375)"/>
<path d="M0 0 C3.82438712 2.96330617 6.78905522 6.0448727 7.515625 10.94921875 C8.175625 10.94921875 8.835625 10.94921875 9.515625 10.94921875 C13.60209205 19.93944626 13.93319213 32.06416982 11.546875 41.64453125 C8.85133574 47.66865308 3.98180165 53.30510098 -1.484375 56.94921875 C-2.21402866 59.51204617 -2.21402866 59.51204617 -2.484375 61.94921875 C-1.93007812 61.52769531 -1.37578125 61.10617188 -0.8046875 60.671875 C-0.08023438 60.12402344 0.64421875 59.57617188 1.390625 59.01171875 C2.10992187 58.46644531 2.82921875 57.92117187 3.5703125 57.359375 C5.515625 55.94921875 5.515625 55.94921875 7.515625 54.94921875 C6.07308843 58.31513741 4.18297773 60.45968954 1.515625 62.94921875 C1.845625 63.60921875 2.175625 64.26921875 2.515625 64.94921875 C1.566875 65.48546875 0.618125 66.02171875 -0.359375 66.57421875 C-3.85177092 69.22843965 -4.53173376 70.7575973 -5.484375 74.94921875 C-6.0378514 72.87368227 -6.484375 71.10555911 -6.484375 68.94921875 C-7.144375 68.94921875 -7.804375 68.94921875 -8.484375 68.94921875 C-8.814375 69.60921875 -9.144375 70.26921875 -9.484375 70.94921875 C-9.30972378 68.35956272 -9.09632292 65.78329228 -8.859375 63.19921875 C-8.81425781 62.46960938 -8.76914063 61.74 -8.72265625 60.98828125 C-8.50652237 58.82694248 -8.23735258 56.98897879 -7.484375 54.94921875 C-4.59765625 52.66796875 -4.59765625 52.66796875 -1.484375 50.94921875 C7.23997096 41.90174887 8.06525412 31.87628207 8.515625 19.94921875 C7.855625 19.94921875 7.195625 19.94921875 6.515625 19.94921875 C6.12375 18.75296875 5.731875 17.55671875 5.328125 16.32421875 C2.43639144 8.73341816 -2.56659714 4.72255213 -9.484375 0.94921875 C-10.53625 0.35109375 -11.588125 -0.24703125 -12.671875 -0.86328125 C-21.80045517 -3.7066095 -30.23828142 -2.62085146 -38.8203125 1.3984375 C-45.5429028 5.3117342 -50.78091721 11.37020241 -53.07983398 18.89941406 C-53.49645565 21.01043125 -53.59831722 22.9088451 -53.58203125 25.05859375 C-53.57880859 25.81269531 -53.57558594 26.56679688 -53.57226562 27.34375 C-53.56388672 28.12105469 -53.55550781 28.89835937 -53.546875 29.69921875 C-53.54236328 30.49199219 -53.53785156 31.28476562 -53.53320312 32.1015625 C-53.52146065 34.05081383 -53.50352646 36.00002613 -53.484375 37.94921875 C-54.144375 37.61921875 -54.804375 37.28921875 -55.484375 36.94921875 C-55.79678955 34.23474896 -55.99774092 31.61012514 -56.109375 28.88671875 C-56.14804687 28.12810547 -56.18671875 27.36949219 -56.2265625 26.58789062 C-56.32111062 24.7087468 -56.40384256 22.82901539 -56.484375 20.94921875 C-56.51151934 23.65762045 -56.53128346 26.36574596 -56.546875 29.07421875 C-56.55525391 29.83476563 -56.56363281 30.5953125 -56.57226562 31.37890625 C-56.59084009 35.68818315 -56.34554765 39.70438349 -55.484375 43.94921875 C-56.144375 43.61921875 -56.804375 43.28921875 -57.484375 42.94921875 C-60.05200291 35.10368902 -61.16938146 25.52395425 -57.484375 17.94921875 C-57.05125 16.24765625 -57.05125 16.24765625 -56.609375 14.51171875 C-54.06089849 6.44154314 -47.80983405 -0.27393475 -40.296875 -4.19140625 C-26.04415197 -9.69814015 -12.57957653 -7.99701651 0 0 Z " fill="#F4EEE7" transform="translate(93.484375,29.05078125)"/>
<path d="M0 0 C-0.11433363 2.25056722 -0.24186436 4.50046674 -0.375 6.75 C-0.44460937 8.00296875 -0.51421875 9.2559375 -0.5859375 10.546875 C-1.19141547 15.59633282 -1.19141547 15.59633282 -3 18 C-7.02495878 19.30572537 -11.06506631 19.11056019 -15.25 19.0625 C-15.99507812 19.05798828 -16.74015625 19.05347656 -17.5078125 19.04882812 C-19.3385764 19.03709246 -21.16929873 19.0191585 -23 19 C-23 19.66 -23 20.32 -23 21 C-16.4 21 -9.8 21 -3 21 C-3 21.66 -3 22.32 -3 23 C-6.83724172 23.90413673 -10.37502274 24.10576898 -14.3125 24.0625 C-15.91544922 24.04896484 -15.91544922 24.04896484 -17.55078125 24.03515625 C-18.35902344 24.02355469 -19.16726562 24.01195313 -20 24 C-20 24.66 -20 25.32 -20 26 C-15.05 26 -10.1 26 -5 26 C-5 26.66 -5 27.32 -5 28 C-5.66 28.33 -6.32 28.66 -7 29 C-7 30.32 -7 31.64 -7 33 C-10.17545903 34.05848634 -12.54008796 34.16670878 -15.875 34.1875 C-16.90367188 34.20167969 -17.93234375 34.21585938 -18.9921875 34.23046875 C-22.1703269 33.98694898 -24.2406509 33.60080706 -27 32 C-31.46873255 23.82137627 -31.32149107 13.07319237 -31 4 C-30.67 4 -30.34 4 -30 4 C-29.67 6.64 -29.34 9.28 -29 12 C-20.75 12.33 -12.5 12.66 -4 13 C-4 9.04 -4 5.08 -4 1 C-2 0 -2 0 0 0 Z " fill="#0C0B0A" transform="translate(87,82)"/>
<path d="M0 0 C0.8125 1.625 0.8125 1.625 1 4 C-0.22164916 5.45277198 -1.44895465 6.90161628 -2.71875 8.3125 C-6.77194187 13.65085026 -6.60696732 21.61191772 -6 28 C-4.71156804 35.57751073 -0.64465811 40.90159912 5 46 C6.485 46.495 6.485 46.495 8 47 C8.02703381 48.93742341 8.04641125 50.87495479 8.0625 52.8125 C8.07410156 53.89144531 8.08570312 54.97039062 8.09765625 56.08203125 C8 59 8 59 7 62 C6.96079185 63.99961564 6.95556653 66.00049364 7 68 C6.67 68 6.34 68 6 68 C4.04978464 61.53991163 3.77737697 55.7281627 4 49 C3.43539062 48.76667969 2.87078125 48.53335938 2.2890625 48.29296875 C-0.56784814 46.67925301 -2.41032426 44.73086666 -4.625 42.3125 C-5.40101562 41.48363281 -6.17703125 40.65476563 -6.9765625 39.80078125 C-12.23901942 32.51664686 -11.59678515 23.597436 -11 15 C-9.86974816 9.26043987 -7.01979448 5.12028934 -3 1 C-2.01 0.67 -1.02 0.34 0 0 Z " fill="#2B2B2B" transform="translate(50,35)"/>
<path d="M0 0 C2.0625 1.4375 2.0625 1.4375 3 4 C3.4971423 7.11428221 3.59824188 9.89483975 3 13 C0.30081929 16.35352755 -1.31436636 16.90377072 -5.5625 17.5 C-9 17 -9 17 -11.4375 15.5 C-13.63942619 11.9769181 -13.56560098 9.05070111 -13 5 C-10.79673157 -1.13767634 -5.79357521 -0.72154416 0 0 Z " fill="#414141" transform="translate(164,65)"/>
<path d="M0 0 C2.9375 1.5 2.9375 1.5 5 4 C5.79190864 8.98902441 5.80380719 10.83082591 2.9375 15 C-0.74376653 17.50639423 -2.62901047 17.71525283 -7 17 C-9.4375 15.5625 -9.4375 15.5625 -11 13 C-11.77201236 8.66240478 -11.75587974 5.23964277 -9.4375 1.4375 C-6.02983728 -0.57214724 -3.89581737 -0.54678139 0 0 Z " fill="#262626" transform="translate(227,65)"/>
<path d="M0 0 C0.66 0 1.32 0 2 0 C6.92696663 8.26839346 6.18822185 18.54106771 4.19140625 27.71484375 C1.53564139 35.44321138 -2.73755139 41.71337814 -9 47 C-11.78125 48.26953125 -11.78125 48.26953125 -14 49 C-14.375 46.8125 -14.375 46.8125 -14 44 C-12.60780776 42.77354493 -11.2032644 41.556867 -9.7265625 40.43359375 C-3.68874135 35.42028977 -1.02875144 29.66242449 0 22 C0.66 22 1.32 22 2 22 C1.85758352 19.64558284 1.71115192 17.29152516 1.5625 14.9375 C1.48128906 13.62652344 1.40007812 12.31554687 1.31640625 10.96484375 C1.02101751 7.26336762 0.56734612 3.66629552 0 0 Z " fill="#F6A032" transform="translate(105,42)"/>
<path d="M0 0 C2.31 0 4.62 0 7 0 C7 0.66 7 1.32 7 2 C6.34 2 5.68 2 5 2 C5.33 4.64 5.66 7.28 6 10 C7.31886772 8.90344712 8.62990057 7.79746577 9.9375 6.6875 C10.66839844 6.07261719 11.39929688 5.45773438 12.15234375 4.82421875 C14.23820366 3.04024481 14.23820366 3.04024481 15 0 C16.65 0 18.3 0 20 0 C19.67 0.99 19.34 1.98 19 3 C18.34 3 17.68 3 17 3 C16.67 3.99 16.34 4.98 16 6 C14.37667033 7.38576923 12.71275535 8.72641268 11 10 C11.47380944 14.26428496 14.03897727 16.11490093 17 19 C17 19.66 17 20.32 17 21 C17.99 21 18.98 21 20 21 C20 21.99 20 22.98 20 24 C18.02 24 16.04 24 14 24 C13.79375 23.29875 13.5875 22.5975 13.375 21.875 C11.54218423 18.04274884 9.09748481 15.89547493 6 13 C5.67 15.64 5.34 18.28 5 21 C5.66 21 6.32 21 7 21 C7 21.66 7 22.32 7 23 C4.69 23 2.38 23 0 23 C0 22.34 0 21.68 0 21 C0.66 21 1.32 21 2 21 C2 14.73 2 8.46 2 2 C1.34 2 0.68 2 0 2 C0 1.34 0 0.68 0 0 Z " fill="#323232" transform="translate(193,58)"/>
<path d="M0 0 C2.64 0 5.28 0 8 0 C8 3.96 8 7.92 8 12 C8.66 12 9.32 12 10 12 C10.66 13.98 11.32 15.96 12 18 C12.20496094 17.36191406 12.40992188 16.72382812 12.62109375 16.06640625 C12.89050781 15.24011719 13.15992188 14.41382812 13.4375 13.5625 C13.70433594 12.73878906 13.97117188 11.91507813 14.24609375 11.06640625 C15 9 15 9 16 8 C16.07148199 6.64756083 16.08399454 5.29165633 16.0625 3.9375 C16.041875 2.638125 16.02125 1.33875 16 0 C18.31 0 20.62 0 23 0 C23 0.99 23 1.98 23 3 C22.34 3 21.68 3 21 3 C20.83564453 4.10408203 20.83564453 4.10408203 20.66796875 5.23046875 C19.12991707 14.69636402 19.12991707 14.69636402 16 19 C15.31903578 20.32608822 14.64669414 21.65686601 14 23 C12.35 23 10.7 23 9 23 C6.80843895 17.46891736 5.183897 12.02198285 3.84375 6.22265625 C3.5653125 5.48917969 3.286875 4.75570312 3 4 C2.01 3.67 1.02 3.34 0 3 C0 2.01 0 1.02 0 0 Z " fill="#3B3B3B" transform="translate(128,58)"/>
<path d="M0 0 C7.40993283 2.16876083 12.8406267 5.29753477 18 11 C19.2684375 12.3921875 19.2684375 12.3921875 20.5625 13.8125 C23.29883488 17.1569093 25.57987992 20.90562784 27 25 C26.67 25.66 26.34 26.32 26 27 C25.505 25.02 25.505 25.02 25 23 C24.34 23 23.68 23 23 23 C23.32742187 23.99128906 23.65484375 24.98257813 23.9921875 26.00390625 C25.13913622 30.01822678 25.19896279 33.75860244 25.125 37.9375 C25.11597656 38.62134766 25.10695312 39.30519531 25.09765625 40.00976562 C25.07438958 41.67333287 25.03853167 43.33671631 25 45 C24.67 45 24.34 45 24 45 C23.94465088 44.45061768 23.88930176 43.90123535 23.83227539 43.33520508 C23.57818747 40.82737577 23.32037701 38.31994239 23.0625 35.8125 C22.93198242 34.51602539 22.93198242 34.51602539 22.79882812 33.19335938 C22.3732769 29.0796975 21.92796186 25.03788809 21 21 C20.34 21 19.68 21 19 21 C18.731875 20.030625 18.46375 19.06125 18.1875 18.0625 C17.5996875 16.5465625 17.5996875 16.5465625 17 15 C16.01 14.67 15.02 14.34 14 14 C13.46375 13.4225 12.9275 12.845 12.375 12.25 C4.63037379 4.91298569 -3.63484875 3.82468477 -13.875 3.9375 C-15.050625 3.94426758 -15.050625 3.94426758 -16.25 3.95117188 C-18.16670014 3.96285907 -20.08336048 3.98079092 -22 4 C-18.84685215 1.89790143 -18.13896919 1.7565239 -14.55078125 1.8046875 C-13.27944336 1.81435547 -13.27944336 1.81435547 -11.98242188 1.82421875 C-10.66081055 1.84935547 -10.66081055 1.84935547 -9.3125 1.875 C-7.97348633 1.88853516 -7.97348633 1.88853516 -6.60742188 1.90234375 C-4.40467686 1.92590252 -2.20247412 1.95879671 0 2 C0 1.34 0 0.68 0 0 Z " fill="#F7B053" transform="translate(82,19)"/>
<path d="M0 0 C-1.46837896 3.19975116 -3.27839346 5.84834256 -5.4375 8.625 C-6.33275391 9.78902344 -6.33275391 9.78902344 -7.24609375 10.9765625 C-9 13 -9 13 -12 15 C-12.72965366 17.56282742 -12.72965366 17.56282742 -13 20 C-12.16855469 19.36771484 -12.16855469 19.36771484 -11.3203125 18.72265625 C-10.23363281 17.90087891 -10.23363281 17.90087891 -9.125 17.0625 C-8.40570313 16.51722656 -7.68640625 15.97195312 -6.9453125 15.41015625 C-5 14 -5 14 -3 13 C-4.44253657 16.36591866 -6.33264727 18.51047079 -9 21 C-8.67 21.66 -8.34 22.32 -8 23 C-8.94875 23.53625 -9.8975 24.0725 -10.875 24.625 C-14.36739592 27.2792209 -15.04735876 28.80837855 -16 33 C-16.5534764 30.92446352 -17 29.15634036 -17 27 C-17.66 27 -18.32 27 -19 27 C-19.33 27.66 -19.66 28.32 -20 29 C-19.82534878 26.41034397 -19.61194792 23.83407353 -19.375 21.25 C-19.30732422 20.15558594 -19.30732422 20.15558594 -19.23828125 19.0390625 C-19.02215126 16.87776259 -18.75359756 15.03951777 -18 13 C-15.11328125 10.74609375 -15.11328125 10.74609375 -12 9 C-10.19274381 6.95949984 -10.19274381 6.95949984 -8.8125 4.8125 C-6.25327338 1.01243623 -4.76102654 0 0 0 Z " fill="#EEE7DD" transform="translate(104,71)"/>
<path d="M0 0 C1.42991579 4.39488825 0.66432147 8.41477966 0.15625 12.9296875 C-0.00608121 16.11949586 0.36632902 18.87823855 1 22 C0.94779297 20.7315625 0.94779297 20.7315625 0.89453125 19.4375 C0.72884136 12.49430443 1.03345912 7.30389938 4 1 C5.1171875 4.734375 5.1171875 4.734375 4.0625 7.125 C1.47038288 14.13896396 2.70815598 22.99714328 5 30 C5.66 30.33 6.32 30.66 7 31 C8 33 9 35 10 37 C11.92919024 39.67597356 13.53832937 41.67939539 16.25 43.5625 C16.8275 44.036875 17.405 44.51125 18 45 C18 46.32 18 47.64 18 49 C12.86468607 48.14411435 10.38655362 44.68652807 7 41 C6.236875 40.195625 5.47375 39.39125 4.6875 38.5625 C2.42251914 35.12308462 1.81905607 32.02702566 1 28 C0.34 28 -0.32 28 -1 28 C-2.73540968 18.8890992 -3.33959946 8.76644858 0 0 Z " fill="#F6A740" transform="translate(32,42)"/>
<path d="M0 0 C-0.66 0.33 -1.32 0.66 -2 1 C-2 1.99 -2 2.98 -2 4 C-3.093125 3.67 -4.18625 3.34 -5.3125 3 C-15.24161662 0.56157737 -24.15888519 1.78142653 -33.0625 6.6875 C-33.701875 7.120625 -34.34125 7.55375 -35 8 C-35.33 7.34 -35.66 6.68 -36 6 C-36.66 5.67 -37.32 5.34 -38 5 C-27.3114542 -5.12599076 -12.96434201 -7.50390855 0 0 Z " fill="#1E1E1E" transform="translate(86,30)"/>
<path d="M0 0 C2.97 0.495 2.97 0.495 6 1 C6 1.66 6 2.32 6 3 C11.28 3 16.56 3 22 3 C22 2.34 22 1.68 22 1 C23.65 1 25.3 1 27 1 C27 1.66 27 2.32 27 3 C26.35708008 3.21769043 25.71416016 3.43538086 25.05175781 3.65966797 C22.75310446 4.83392895 22.75310446 4.83392895 22.36230469 7.43017578 C22.29946289 8.4251709 22.23662109 9.42016602 22.171875 10.4453125 C22.05585937 12.05986328 22.05585937 12.05986328 21.9375 13.70703125 C21.8446875 15.39892578 21.8446875 15.39892578 21.75 17.125 C21.63398437 18.82849609 21.63398437 18.82849609 21.515625 20.56640625 C21.3266811 23.3769468 21.15558532 26.18744746 21 29 C19.68 28.67 18.36 28.34 17 28 C17.47458158 24.56185066 17.95545262 21.1246099 18.4375 17.6875 C18.57220703 16.71103516 18.70691406 15.73457031 18.84570312 14.72851562 C18.97783203 13.79072266 19.10996094 12.85292969 19.24609375 11.88671875 C19.36654053 11.02264404 19.4869873 10.15856934 19.61108398 9.26831055 C20 7 20 7 21 4 C16.05 4 11.1 4 6 4 C6.309375 5.52625 6.61875 7.0525 6.9375 8.625 C8.17961832 15.38177131 8.61990801 22.14834175 9 29 C8.01 29 7.02 29 6 29 C5.66178803 26.14633646 5.3293022 23.29219404 5 20.4375 C4.90460937 19.63763672 4.80921875 18.83777344 4.7109375 18.01367188 C4.17285824 13.30547833 3.89823297 8.73852735 4 4 C2.68 3.67 1.36 3.34 0 3 C0 2.01 0 1.02 0 0 Z " fill="#FBDBB3" transform="translate(57,66)"/>
<path d="M0 0 C2 1 2 1 2.6328125 2.6796875 C5.05735778 13.49392913 5.71022373 27.10192865 -0.15722656 36.94042969 C-8.3265038 48.78381425 -8.3265038 48.78381425 -14 52 C-14.99 51.67 -15.98 51.34 -17 51 C-16.05125 50.113125 -15.1025 49.22625 -14.125 48.3125 C-11.49481162 45.68847131 -10.18505776 43.55517328 -9 40 C-8.54367188 39.24460938 -8.08734375 38.48921875 -7.6171875 37.7109375 C-5.9619241 34.93617228 -4.62742315 32.13719247 -3.3125 29.1875 C-2.87550781 28.21167969 -2.43851563 27.23585938 -1.98828125 26.23046875 C-1.66214844 25.49441406 -1.33601563 24.75835937 -1 24 C-0.67 24.66 -0.34 25.32 0 26 C0.66 26 1.32 26 2 26 C1.85815167 22.97893247 1.71164333 19.95820903 1.5625 16.9375 C1.52318359 16.08994141 1.48386719 15.24238281 1.44335938 14.36914062 C1.19996611 9.51999791 0.77401958 4.79371788 0 0 Z " fill="#FCE8CD" transform="translate(111,41)"/>
<path d="M0 0 C2.10388569 -0.05402274 4.20816714 -0.09280256 6.3125 -0.125 C8.07013672 -0.15980469 8.07013672 -0.15980469 9.86328125 -0.1953125 C13 0 13 0 16 2 C16.29296875 4.8203125 16.29296875 4.8203125 16.1875 8.125 C16.16042969 9.22070312 16.13335937 10.31640625 16.10546875 11.4453125 C16.07066406 12.28835937 16.03585938 13.13140625 16 14 C16.66 14 17.32 14 18 14 C18 14.66 18 15.32 18 16 C15.69 16 13.38 16 11 16 C11 15.34 11 14.68 11 14 C11.66 14 12.32 14 13 14 C12.67 10.7 12.34 7.4 12 4 C9.69 4 7.38 4 5 4 C5 7.3 5 10.6 5 14 C5.66 14 6.32 14 7 14 C7 14.66 7 15.32 7 16 C5.02 16 3.04 16 1 16 C1.33 11.71 1.66 7.42 2 3 C1.34 3 0.68 3 0 3 C0 2.01 0 1.02 0 0 Z " fill="#454545" transform="translate(235,65)"/>
<path d="M0 0 C1 1 1 1 1.09765625 3.28515625 C1.08605469 4.20167969 1.07445312 5.11820312 1.0625 6.0625 C1.05347656 6.98160156 1.04445312 7.90070313 1.03515625 8.84765625 C1.02355469 9.55792969 1.01195312 10.26820312 1 11 C0.34 11 -0.32 11 -1 11 C-1 11.66 -1 12.32 -1 13 C1.31 13 3.62 13 6 13 C6 13.33 6 13.66 6 14 C0 14 -6 14 -12 14 C-11.67 13.01 -11.34 12.02 -11 11 C-11 11.66 -11 12.32 -11 13 C-9.02 13 -7.04 13 -5 13 C-5 12.34 -5 11.68 -5 11 C-5.66 11 -6.32 11 -7 11 C-7 7.7 -7 4.4 -7 1 C-4.51588385 -0.24205807 -2.74800896 -0.14092354 0 0 Z " fill="#D0D0D0" transform="translate(247,68)"/>
<path d="M0 0 C3 0.25 3 0.25 5 2.25 C5.34490322 6.30261287 5.30163882 7.79754176 3 11.25 C0 11.625 0 11.625 -3 11.25 C-5.30163882 7.79754176 -5.34490322 6.30261287 -5 2.25 C-3 0.25 -3 0.25 0 0 Z " fill="#E8E8E8" transform="translate(224,67.75)"/>
<path d="M0 0 C4.79147189 0.42277693 7.78646767 2.5850975 11 6 C16.09672641 12.45237743 16.09672641 12.45237743 15.8125 17 C15.544375 17.66 15.27625 18.32 15 19 C14.34 19 13.68 19 13 19 C12.731875 18.43152344 12.46375 17.86304687 12.1875 17.27734375 C9.40538078 11.79547067 6.45935154 8.24615811 1.57421875 4.5078125 C0.79498047 3.76144531 0.79498047 3.76144531 0 3 C0 2.01 0 1.02 0 0 Z " fill="#1E1E1E" transform="translate(84,31)"/>
<path d="M0 0 C3 0.25 3 0.25 5 2.25 C5.33661952 5.4142235 5.49943411 7.43513382 3.8125 10.1875 C2 11.25 2 11.25 -0.5625 11.0625 C-3 10.25 -3 10.25 -5 8.25 C-5.25 5.25 -5.25 5.25 -5 2.25 C-3 0.25 -3 0.25 0 0 Z " fill="#EBEBEB" transform="translate(159,67.75)"/>
<path d="M0 0 C0.99 0 1.98 0 3 0 C3 1.32 3 2.64 3 4 C4.32 4 5.64 4 7 4 C7 4.99 7 5.98 7 7 C5.68 7 4.36 7 3 7 C3 10.63 3 14.26 3 18 C4.32 18 5.64 18 7 18 C7 18.66 7 19.32 7 20 C5.02 20 3.04 20 1 20 C-0.32229189 17.35541621 -0.09677194 15.32238699 -0.0625 12.375 C-0.05347656 11.37210938 -0.04445312 10.36921875 -0.03515625 9.3359375 C-0.01775391 8.17964844 -0.01775391 8.17964844 0 7 C-0.99 7 -1.98 7 -3 7 C-3 6.01 -3 5.02 -3 4 C-2.01 4 -1.02 4 0 4 C0 2.68 0 1.36 0 0 Z " fill="#484848" transform="translate(182,61)"/>
<path d="M0 0 C0.66 0 1.32 0 2 0 C5.14826131 5.17511028 5.43278959 9.19717946 5.3125 15.0625 C5.31572266 15.85205078 5.31894531 16.64160156 5.32226562 17.45507812 C5.28350319 21.65904067 5.17191438 25.27360509 3 29 C2.01 29.33 1.02 29.66 0 30 C0.165 28.989375 0.33 27.97875 0.5 26.9375 C1.61631229 18.00700165 1.43857087 8.87118703 0 0 Z " fill="#F59921" transform="translate(105,42)"/>
<path d="M0 0 C1.65 0 3.3 0 5 0 C5 7.26 5 14.52 5 22 C5.66 22 6.32 22 7 22 C7 22.66 7 23.32 7 24 C4.69 24 2.38 24 0 24 C0 23.34 0 22.68 0 22 C0.66 22 1.32 22 2 22 C2 15.73 2 9.46 2 3 C1.34 3 0.68 3 0 3 C0 2.01 0 1.02 0 0 Z " fill="#303030" transform="translate(170,57)"/>
<path d="M0 0 C0.144375 0.598125 0.28875 1.19625 0.4375 1.8125 C0.8872439 3.56150404 1.42892341 5.28677023 2 7 C-0.57400705 11.79965224 -4.03780553 15.66484966 -9 18 C-9 17.34 -9 16.68 -9 16 C-10.32 16.33 -11.64 16.66 -13 17 C-13 20.96 -13 24.92 -13 29 C-13.33 29 -13.66 29 -14 29 C-14 24.71 -14 20.42 -14 16 C-12.948125 15.484375 -11.89625 14.96875 -10.8125 14.4375 C-5.14714615 11.20343161 -2.03879187 6.1163756 0 0 Z " fill="#3C3C3C" transform="translate(96,66)"/>
<path d="M0 0 C4.8274799 1.41292095 8.7162359 3.42974154 13 6 C12.34 6.33 11.68 6.66 11 7 C11.495 8.98 11.495 8.98 12 11 C11.27554688 10.57847656 10.55109375 10.15695313 9.8046875 9.72265625 C8.83789062 9.17480469 7.87109375 8.62695312 6.875 8.0625 C5.92367187 7.51722656 4.97234375 6.97195312 3.9921875 6.41015625 C-1.80632377 3.67743749 -7.59999723 3.86836861 -13.875 3.9375 C-15.050625 3.94426758 -15.050625 3.94426758 -16.25 3.95117188 C-18.16670014 3.96285907 -20.08336048 3.98079092 -22 4 C-18.84685215 1.89790143 -18.13896919 1.7565239 -14.55078125 1.8046875 C-13.27944336 1.81435547 -13.27944336 1.81435547 -11.98242188 1.82421875 C-10.66081055 1.84935547 -10.66081055 1.84935547 -9.3125 1.875 C-7.97348633 1.88853516 -7.97348633 1.88853516 -6.60742188 1.90234375 C-4.40467686 1.92590252 -2.20247412 1.95879671 0 2 C0 1.34 0 0.68 0 0 Z " fill="#F7B259" transform="translate(82,19)"/>
<path d="M0 0 C1.65 0 3.3 0 5 0 C5 0.66 5 1.32 5 2 C4.03562012 2.32653564 4.03562012 2.32653564 3.05175781 2.65966797 C0.75310446 3.83392895 0.75310446 3.83392895 0.36230469 6.43017578 C0.29946289 7.4251709 0.23662109 8.42016602 0.171875 9.4453125 C0.09453125 10.52167969 0.0171875 11.59804687 -0.0625 12.70703125 C-0.124375 13.83496094 -0.18625 14.96289062 -0.25 16.125 C-0.32734375 17.26066406 -0.4046875 18.39632812 -0.484375 19.56640625 C-0.6733189 22.3769468 -0.84441468 25.18744746 -1 28 C-2.32 27.67 -3.64 27.34 -5 27 C-4.35953595 22.87414751 -3.71172408 18.74948238 -3.0625 14.625 C-2.88009766 13.449375 -2.69769531 12.27375 -2.50976562 11.0625 C-2.33251953 9.94101563 -2.15527344 8.81953125 -1.97265625 7.6640625 C-1.81031494 6.62717285 -1.64797363 5.5902832 -1.48071289 4.52197266 C-1 2 -1 2 0 0 Z " fill="#FBD5A4" transform="translate(79,67)"/>
<path d="M0 0 C2.1519437 3.22791555 2.20086443 4.28400809 2 8 C1.34 8 0.68 8 0 8 C-0.66 12.29 -1.32 16.58 -2 21 C-2.66 19.68 -3.32 18.36 -4 17 C-4.33 21.62 -4.66 26.24 -5 31 C-5.33 31 -5.66 31 -6 31 C-6.64986334 19.88011611 -5.68804175 11.22146808 -1 1 C-0.67 0.67 -0.34 0.34 0 0 Z " fill="#FDF1E0" transform="translate(32,34)"/>
<path d="M0 0 C1.98 0.66 3.96 1.32 6 2 C6.02703381 3.93742341 6.04641125 5.87495479 6.0625 7.8125 C6.07410156 8.89144531 6.08570313 9.97039062 6.09765625 11.08203125 C6 14 6 14 5 17 C4.96079185 18.99961564 4.95556653 21.00049364 5 23 C4.67 23 4.34 23 4 23 C2.04978464 16.53991163 1.77737697 10.7281627 2 4 C1.01 3.67 0.02 3.34 -1 3 C-0.67 2.01 -0.34 1.02 0 0 Z " fill="#31302F" transform="translate(52,80)"/>
<path d="M0 0 C2.31 0 4.62 0 7 0 C7 0.99 7 1.98 7 3 C6.34 3 5.68 3 5 3 C4.87882813 3.78246094 4.75765625 4.56492187 4.6328125 5.37109375 C4.46523437 6.38300781 4.29765625 7.39492187 4.125 8.4375 C3.96257812 9.44683594 3.80015625 10.45617187 3.6328125 11.49609375 C3.42398438 12.32238281 3.21515625 13.14867188 3 14 C2.01 14.495 2.01 14.495 1 15 C1 13.35 1 11.7 1 10 C0.01 12.64 -0.98 15.28 -2 18 C-3.07529543 13.69881829 -2.84830433 12.79929223 -1 9 C-0.67 8.67 -0.34 8.34 0 8 C0.07148199 6.64756083 0.08399454 5.29165633 0.0625 3.9375 C0.041875 2.638125 0.02125 1.33875 0 0 Z " fill="#6D6D6D" transform="translate(144,58)"/>
<path d="M0 0 C0.99 0.66 1.98 1.32 3 2 C2.02160156 1.95359375 1.04320313 1.9071875 0.03515625 1.859375 C-7.80284957 1.64357936 -14.11272493 1.81910673 -21 6 C-21 6.99 -21 7.98 -21 9 C-23.5 10.6875 -23.5 10.6875 -26 12 C-26.33 11.34 -26.66 10.68 -27 10 C-27.66 9.67 -28.32 9.34 -29 9 C-20.65843436 1.09746413 -11.42735515 -1.37833456 0 0 Z " fill="#515151" transform="translate(77,26)"/>
<path d="M0 0 C5.75 -0.125 5.75 -0.125 8 1 C8 4.96 8 8.92 8 13 C8.66 13 9.32 13 10 13 C10 13.66 10 14.32 10 15 C7.69 15 5.38 15 3 15 C3 14.34 3 13.68 3 13 C3.66 13 4.32 13 5 13 C4.93976735 11.39479996 4.85091401 9.79065673 4.75 8.1875 C4.70359375 7.29417969 4.6571875 6.40085937 4.609375 5.48046875 C4.20878584 2.83946485 4.20878584 2.83946485 1.953125 1.17578125 C1.30859375 0.78777344 0.6640625 0.39976563 0 0 Z " fill="#353535" transform="translate(243,66)"/>
<path d="M0 0 C1.56041016 -0.00386719 1.56041016 -0.00386719 3.15234375 -0.0078125 C5.63915971 0.10567977 7.69342407 0.40571429 10.0625 1.125 C10.0625 1.785 10.0625 2.445 10.0625 3.125 C10.7225 3.455 11.3825 3.785 12.0625 4.125 C4.1425 3.795 -3.7775 3.465 -11.9375 3.125 C-7.75499921 0.33666614 -4.92520558 -0.01217603 0 0 Z " fill="#F5981F" transform="translate(71.9375,17.875)"/>
<path d="M0 0 C1 3 1 3 0.22265625 4.84765625 C-0.16019531 5.57855469 -0.54304688 6.30945312 -0.9375 7.0625 C-4.23534413 14.66680727 -3.31811318 22.88811403 -3 31 C-3.66 30.67 -4.32 30.34 -5 30 C-6.71781667 21.18926286 -5.72583519 12.71475454 -4 4 C-3.01 3.67 -2.02 3.34 -1 3 C-0.67 2.01 -0.34 1.02 0 0 Z " fill="#F6971B" transform="translate(37,38)"/>
<path d="M0 0 C0.88945313 0.00322266 1.77890625 0.00644531 2.6953125 0.00976562 C4.07589844 0.02233398 4.07589844 0.02233398 5.484375 0.03515625 C6.42023438 0.03966797 7.35609375 0.04417969 8.3203125 0.04882812 C10.62506541 0.06058707 12.92968727 0.07702199 15.234375 0.09765625 C15.234375 0.42765625 15.234375 0.75765625 15.234375 1.09765625 C10.284375 1.42765625 5.334375 1.75765625 0.234375 2.09765625 C7.164375 2.59265625 7.164375 2.59265625 14.234375 3.09765625 C14.234375 3.42765625 14.234375 3.75765625 14.234375 4.09765625 C3.839375 4.59265625 3.839375 4.59265625 -6.765625 5.09765625 C-5.445625 4.43765625 -4.125625 3.77765625 -2.765625 3.09765625 C-5.735625 3.09765625 -8.705625 3.09765625 -11.765625 3.09765625 C-7.72897813 0.40655833 -4.78839911 -0.03069487 0 0 Z " fill="#FCE5C6" transform="translate(63.765625,13.90234375)"/>
<path d="M0 0 C0.33 1.32 0.66 2.64 1 4 C0.45730469 4.45890625 -0.08539063 4.9178125 -0.64453125 5.390625 C-1.35996094 6.00421875 -2.07539062 6.6178125 -2.8125 7.25 C-3.52019531 7.85328125 -4.22789063 8.4565625 -4.95703125 9.078125 C-6.91889671 10.92370398 -8.45669625 12.79945332 -10 15 C-10.33 14.67 -10.66 14.34 -11 14 C-11.33 14.66 -11.66 15.32 -12 16 C-12.66 16 -13.32 16 -14 16 C-13.25 13.125 -13.25 13.125 -12 10 C-10.1875 8.9375 -10.1875 8.9375 -8 8 C-6.29220027 6.37550757 -4.62449243 4.70779973 -3 3 C-2 2 -1 1 0 0 Z " fill="#F59C27" transform="translate(48,25)"/>
<path d="M0 0 C4.95 0 9.9 0 15 0 C15 0.66 15 1.32 15 2 C11.16275828 2.90413673 7.62497726 3.10576898 3.6875 3.0625 C2.08455078 3.04896484 2.08455078 3.04896484 0.44921875 3.03515625 C-0.35902344 3.02355469 -1.16726562 3.01195313 -2 3 C-2 3.66 -2 4.32 -2 5 C-3.9375 4.625 -3.9375 4.625 -6 4 C-6.33 3.34 -6.66 2.68 -7 2 C-3.535 1.505 -3.535 1.505 0 1 C0 0.67 0 0.34 0 0 Z " fill="#2C2C2C" transform="translate(69,103)"/>
<path d="M0 0 C0.8125 1.625 0.8125 1.625 1 4 C-1.15391969 6.91070228 -3.44330665 9.44330665 -6 12 C-6.66 11.67 -7.32 11.34 -8 11 C-7.4975516 6.60357652 -6.02704059 4.2051018 -3 1 C-2.01 0.67 -1.02 0.34 0 0 Z " fill="#252525" transform="translate(50,35)"/>
<path d="M0 0 C4.56048012 3.61251516 8.01665146 6.98797445 11 12 C10.01 12.66 9.02 13.32 8 14 C0.14806378 5.92255125 0.14806378 5.92255125 0 0 Z " fill="#2B2B2B" transform="translate(42,68)"/>
<path d="M0 0 C6.6 0 13.2 0 20 0 C20 0.99 20 1.98 20 3 C13.07 2.67 6.14 2.34 -1 2 C-0.67 1.34 -0.34 0.68 0 0 Z " fill="#FEFBF6" transform="translate(64,15)"/>
<path d="M0 0 C1.37095624 3.69037278 0.60010967 5.70883835 -0.9375 9.25 C-1.31777344 10.14203125 -1.69804687 11.0340625 -2.08984375 11.953125 C-2.54037109 12.96632813 -2.54037109 12.96632813 -3 14 C-4.32 14 -5.64 14 -7 14 C-7.33 12.35 -7.66 10.7 -8 9 C-6.35 9 -4.7 9 -3 9 C-2.814375 7.329375 -2.814375 7.329375 -2.625 5.625 C-2 2 -2 2 0 0 Z " fill="#202020" transform="translate(145,67)"/>
<path d="M0 0 C0.33 0 0.66 0 1 0 C1.125 5.75 1.125 5.75 0 8 C0.66 8 1.32 8 2 8 C1.34 10.31 0.68 12.62 0 15 C-0.598125 15.144375 -1.19625 15.28875 -1.8125 15.4375 C-3.56150404 15.8872439 -5.28677023 16.42892341 -7 17 C-5.35880399 12.32890365 -5.35880399 12.32890365 -3.5 10.625 C-1.61359041 8.58138962 -1.32342274 7.02432071 -0.8125 4.3125 C-0.65394531 3.50425781 -0.49539062 2.69601563 -0.33203125 1.86328125 C-0.22246094 1.24839844 -0.11289063 0.63351563 0 0 Z " fill="#F6A740" transform="translate(105,64)"/>
<path d="M0 0 C3.43119989 -0.19795384 6.20408888 -0.30611966 9.4375 0.9375 C11.97050725 4.28106957 11.30544933 7.95279637 11 12 C9.02 12.99 9.02 12.99 7 14 C7.03480469 12.95199219 7.03480469 12.95199219 7.0703125 11.8828125 C7.08835938 10.97273438 7.10640625 10.06265625 7.125 9.125 C7.15980469 7.76761719 7.15980469 7.76761719 7.1953125 6.3828125 C7.24324836 3.81193006 7.24324836 3.81193006 5 2 C2.42938689 1.35232207 2.42938689 1.35232207 0 1 C0 0.67 0 0.34 0 0 Z " fill="#303030" transform="translate(156,66)"/>
<path d="M0 0 C1.65 0 3.3 0 5 0 C4.67 0.99 4.34 1.98 4 3 C3.34 3 2.68 3 2 3 C1.67 3.99 1.34 4.98 1 6 C-0.65002828 7.35386936 -2.3174387 8.68678142 -4 10 C-4.99 11.485 -4.99 11.485 -6 13 C-6.66 11.68 -7.32 10.36 -8 9 C-7.50628906 8.60167969 -7.01257813 8.20335938 -6.50390625 7.79296875 C-5.86324219 7.26316406 -5.22257813 6.73335938 -4.5625 6.1875 C-3.92441406 5.66542969 -3.28632813 5.14335938 -2.62890625 4.60546875 C-0.7451725 2.99165589 -0.7451725 2.99165589 0 0 Z " fill="#333333" transform="translate(208,58)"/>
<path d="M0 0 C5.94 0 11.88 0 18 0 C18.33 0.99 18.66 1.98 19 3 C16.95840905 3.0272616 14.91671037 3.04651345 12.875 3.0625 C11.73804687 3.07410156 10.60109375 3.08570312 9.4296875 3.09765625 C6.1870844 3.005327 3.18067388 2.61389906 0 2 C0 1.34 0 0.68 0 0 Z " fill="#6F6F6F" transform="translate(62,110)"/>
<path d="M0 0 C1.65 0 3.3 0 5 0 C4.01 0.33 3.02 0.66 2 1 C2 4.96 2 8.92 2 13 C3.32 13 4.64 13 6 13 C6 13.66 6 14.32 6 15 C4.02 15 2.04 15 0 15 C0 10.05 0 5.1 0 0 Z " fill="#2A2A2A" transform="translate(183,66)"/>
<path d="M0 0 C-0.33 0.66 -0.66 1.32 -1 2 C-2.32 2 -3.64 2 -5 2 C-5 2.66 -5 3.32 -5 4 C-7.97 5.32 -10.94 6.64 -14 8 C-13.9375 5.6875 -13.9375 5.6875 -13 3 C-8.57951289 0.48638968 -5.05648166 -0.36998646 0 0 Z " fill="#FEF9F3" transform="translate(62,16)"/>
<path d="M0 0 C3.92739681 1.30913227 6.35638984 2.78990195 9 6 C9.75 8.25 9.75 8.25 10 10 C5.89665529 9.06742166 4.28397854 8.35870974 1.625 5 C0 2 0 2 0 0 Z " fill="#F69E2D" transform="translate(93,26)"/>
<path d="M0 0 C2.08836672 4.17673343 2.3695619 6.65211418 2.625 11.25 C2.69976562 12.51328125 2.77453125 13.7765625 2.8515625 15.078125 C2.90054688 16.04234375 2.94953125 17.0065625 3 18 C2.01 18 1.02 18 0 18 C0 12.06 0 6.12 0 0 Z " fill="#F8B762" transform="translate(63,77)"/>
<path d="M0 0 C3.28330144 2.92348758 3.95866933 5.75457495 5 10 C6.65 10 8.3 10 10 10 C10.33 10.99 10.66 11.98 11 13 C4.80769231 13.47633136 4.80769231 13.47633136 1.5625 11.5625 C-0.73784649 7.78993176 -0.33148757 4.30933841 0 0 Z " fill="#4B4B4B" transform="translate(216,69)"/>
<path d="M0 0 C0.33 0.99 0.66 1.98 1 3 C-0.109375 4.75390625 -0.109375 4.75390625 -1.75 6.5625 C-2.28109375 7.16191406 -2.8121875 7.76132813 -3.359375 8.37890625 C-5 10 -5 10 -8 12 C-8.99 11.67 -9.98 11.34 -11 11 C-9.92173635 9.72486237 -8.83714481 8.45507431 -7.75 7.1875 C-7.14671875 6.47980469 -6.5434375 5.77210937 -5.921875 5.04296875 C-4.07629602 3.08110329 -2.20054668 1.54330375 0 0 Z " fill="#FEF8F1" transform="translate(105,81)"/>
<path d="M0 0 C0.33 0 0.66 0 1 0 C1 4.62 1 9.24 1 14 C-0.32 13.67 -1.64 13.34 -3 13 C-2.69128878 11.20767663 -2.37790936 9.41615679 -2.0625 7.625 C-1.88847656 6.62726563 -1.71445313 5.62953125 -1.53515625 4.6015625 C-1 2 -1 2 0 0 Z " fill="#F7B45C" transform="translate(77,81)"/>
<path d="M0 0 C0.66 0.33 1.32 0.66 2 1 C2.48372093 8.25581395 2.48372093 8.25581395 0.375 11.5 C-2.60098323 13.37956836 -4.54330418 13.31424507 -8 13 C-7.38125 12.731875 -6.7625 12.46375 -6.125 12.1875 C-3.7004767 11.04443152 -3.7004767 11.04443152 -2 8 C-1.62690101 6.34178227 -1.29299023 4.67422986 -1 3 C-0.67 2.01 -0.34 1.02 0 0 Z " fill="#313131" transform="translate(230,68)"/>
<path d="M0 0 C0.33 0 0.66 0 1 0 C1 6.27 1 12.54 1 19 C1.99 19 2.98 19 4 19 C4 19.66 4 20.32 4 21 C1.69 21 -0.62 21 -3 21 C-3 20.34 -3 19.68 -3 19 C-2.01 19 -1.02 19 0 19 C0 12.73 0 6.46 0 0 Z " fill="#090909" transform="translate(196,60)"/>
<path d="M0 0 C-0.66 1.98 -1.32 3.96 -2 6 C-2.66 5.34 -3.32 4.68 -4 4 C-4.94875 4.763125 -5.8975 5.52625 -6.875 6.3125 C-7.40867187 6.74175781 -7.94234375 7.17101562 -8.4921875 7.61328125 C-10.25292107 9.12270545 -10.25292107 9.12270545 -12 12 C-12.66 11.67 -13.32 11.34 -14 11 C-11.08723043 6.87357644 -5.51692628 0 0 0 Z " fill="#F7AB49" transform="translate(52,22)"/>
<path d="M0 0 C0.33 0.66 0.66 1.32 1 2 C0.0625 4.125 0.0625 4.125 -1 6 C-3.31 6 -5.62 6 -8 6 C-8.33 4.68 -8.66 3.36 -9 2 C-7.329375 2.061875 -7.329375 2.061875 -5.625 2.125 C-1.95633975 2.41121859 -1.95633975 2.41121859 0 0 Z " fill="#3D3D3D" transform="translate(163,76)"/>
<path d="M0 0 C0.33 0 0.66 0 1 0 C1 2.97 1 5.94 1 9 C1.66 9 2.32 9 3 9 C3 9.66 3 10.32 3 11 C1.02 11 -0.96 11 -3 11 C-3 10.34 -3 9.68 -3 9 C-2.34 9 -1.68 9 -1 9 C-1.020625 7.700625 -1.04125 6.40125 -1.0625 5.0625 C-1.08399454 3.70834367 -1.07148199 2.35243917 -1 1 C-0.67 0.67 -0.34 0.34 0 0 Z " fill="#121212" transform="translate(239,70)"/>
<path d="M0 0 C1.32 0.33 2.64 0.66 4 1 C4 1.66 4 2.32 4 3 C4.99 3 5.98 3 7 3 C7 3.99 7 4.98 7 6 C5.02 6 3.04 6 1 6 C0.67 4.02 0.34 2.04 0 0 Z " fill="#3D3D3D" transform="translate(206,76)"/>
<path d="M0 0 C1.98 0.66 3.96 1.32 6 2 C5.01 2.495 5.01 2.495 4 3 C4 3.99 4 4.98 4 6 C1.36 5.34 -1.28 4.68 -4 4 C-2.68 3.34 -1.36 2.68 0 2 C0 1.34 0 0.68 0 0 Z " fill="#3A3A3A" transform="translate(80,28)"/>
<path d="M0 0 C0.33 0 0.66 0 1 0 C1 3.3 1 6.6 1 10 C1.99 10 2.98 10 4 10 C4 10.66 4 11.32 4 12 C1.69 12 -0.62 12 -3 12 C-3 11.34 -3 10.68 -3 10 C-2.01 10 -1.02 10 0 10 C0 6.7 0 3.4 0 0 Z " fill="#0A0A0A" transform="translate(249,69)"/>
<path d="M0 0 C1.98 0 3.96 0 6 0 C6 0.66 6 1.32 6 2 C5.34 2 4.68 2 4 2 C3.67 3.65 3.34 5.3 3 7 C2.34 7 1.68 7 1 7 C0.67 4.69 0.34 2.38 0 0 Z " fill="#171717" transform="translate(145,59)"/>
<path d="M0 0 C0.66 0 1.32 0 2 0 C2.92844389 4.33273814 2.92844389 7.66726186 2 12 C1.67 12 1.34 12 1 12 C0.67 8.04 0.34 4.08 0 0 Z " fill="#FBDBB0" transform="translate(61,71)"/>
<path d="M0 0 C-1.44077046 3.36179774 -3.24750021 5.59156268 -6 8 C-6.66 8 -7.32 8 -8 8 C-6.48291727 4.46014029 -4.24676932 0 0 0 Z " fill="#F7AC4C" transform="translate(39,19)"/>
<path d="M0 0 C0.33 0 0.66 0 1 0 C1.0825 0.7425 1.165 1.485 1.25 2.25 C2.1396946 5.51221354 3.48503749 6.80954878 6 9 C4.35 9.33 2.7 9.66 1 10 C-0.60725635 6.78548731 -0.05748185 3.56387464 0 0 Z " fill="#515151" transform="translate(151,70)"/>
<path d="M0 0 C2.66735273 2.48952921 4.55746343 4.63408134 6 8 C4.125 7.75 4.125 7.75 2 7 C0.27898465 4.41847698 0 3.15081975 0 0 Z " fill="#090909" transform="translate(42,68)"/>
<path d="M0 0 C0.99 0.33 1.98 0.66 3 1 C2.01 2.98 1.02 4.96 0 7 C-0.99 6.01 -1.98 5.02 -3 4 C-2.01 2.68 -1.02 1.36 0 0 Z " fill="#535353" transform="translate(203,64)"/>
<path d="M0 0 C0.33 0.99 0.66 1.98 1 3 C-0.9375 5.6875 -0.9375 5.6875 -3 8 C-3.66 7.67 -4.32 7.34 -5 7 C-3.70700306 4.11562221 -2.34058637 2.12780579 0 0 Z " fill="#0A0A0A" transform="translate(47,39)"/>
<path d="M0 0 C0.99 0.66 1.98 1.32 3 2 C2.34 2 1.68 2 1 2 C1.33 3.32 1.66 4.64 2 6 C-1.465 4.02 -1.465 4.02 -5 2 C-4.01 1.67 -3.02 1.34 -2 1 C-1.34 0.67 -0.68 0.34 0 0 Z " fill="#F7AE4F" transform="translate(92,24)"/>
<path d="M0 0 C0 3 0 3 -1.53125 4.60546875 C-2.1809375 5.12753906 -2.830625 5.64960937 -3.5 6.1875 C-4.1496875 6.71730469 -4.799375 7.24710937 -5.46875 7.79296875 C-5.9740625 8.19128906 -6.479375 8.58960937 -7 9 C-6.19095897 4.20719998 -3.74015409 2.86479887 0 0 Z " fill="#E6E6E6" transform="translate(94,78)"/>
<path d="M0 0 C0.66 0.66 1.32 1.32 2 2 C1.625 4.125 1.625 4.125 1 6 C0.67 5.67 0.34 5.34 0 5 C-0.33 5.66 -0.66 6.32 -1 7 C-1.66 7 -2.32 7 -3 7 C-1.125 1.125 -1.125 1.125 0 0 Z " fill="#F7A944" transform="translate(37,34)"/>
<path d="M0 0 C2.475 0.495 2.475 0.495 5 1 C5 2.32 5 3.64 5 5 C3.68 5 2.36 5 1 5 C0.67 3.35 0.34 1.7 0 0 Z " fill="#0E0E0E" transform="translate(137,76)"/>
<path d="M0 0 C2.97 0.495 2.97 0.495 6 1 C5.67 1.66 5.34 2.32 5 3 C4.01 3.33 3.02 3.66 2 4 C1.34 3.67 0.68 3.34 0 3 C0 2.01 0 1.02 0 0 Z " fill="#FCEAD1" transform="translate(57,66)"/>
<path d="M0 0 C2.1519437 3.22791555 2.20086443 4.28400809 2 8 C1.34 7.34 0.68 6.68 0 6 C-0.99 6.495 -0.99 6.495 -2 7 C-1.125 1.125 -1.125 1.125 0 0 Z " fill="#FCE6C9" transform="translate(32,34)"/>
<path d="M0 0 C0.33 0.99 0.66 1.98 1 3 C-0.4375 5.1875 -0.4375 5.1875 -2 7 C-2.66 6.67 -3.32 6.34 -4 6 C-3.6875 4.125 -3.6875 4.125 -3 2 C-2.01 1.34 -1.02 0.68 0 0 Z " fill="#FEFAF4" transform="translate(36,32)"/>
</svg>
